PathFileType	4	(X/Y/Z)	Data\static.trc
DataRate	CameraRate	NumFrames	NumMarkers	Units	OrigDataRate	OrigDataStartFrame	OrigNumFrames
250.000000	250.000000	4	38	mm	250.000000	181	483
Frame#	Time	RASI			LASI			RPSI			LPSI			RAIC			LAIC			RLFC			RMFC			RTH1			RTH2			RTH3			RLMAL			RMMAL			RTB1			RTB2			RTB3			RCAL			RMT1			RMT5			LLFC			LMFC			LTH1			LTH2			LTH3			LLMAL			LMMAL			LTB1			LTB2			LTB3			LCAL			LMT1			LMT5			C7			T10			CLAV			STRN			RACR			LACR			
		X1	Y1	Z1	X2	Y2	Z2	X3	Y3	Z3	X4	Y4	Z4	X5	Y5	Z5	X6	Y6	Z6	X7	Y7	Z7	X8	Y8	Z8	X9	Y9	Z9	X10	Y10	Z10	X11	Y11	Z11	X12	Y12	Z12	X13	Y13	Z13	X14	Y14	Z14	X15	Y15	Z15	X16	Y16	Z16	X17	Y17	Z17	X18	Y18	Z18	X19	Y19	Z19	X20	Y20	Z20	X21	Y21	Z21	X22	Y22	Z22	X23	Y23	Z23	X24	Y24	Z24	X25	Y25	Z25	X26	Y26	Z26	X27	Y27	Z27	X28	Y28	Z28	X29	Y29	Z29	X30	Y30	Z30	X31	Y31	Z31	X32	Y32	Z32	X33	Y33	Z33	X34	Y34	Z34	X35	Y35	Z35	X36	Y36	Z36	X37	Y37	Z37	X38	Y38	Z38	

182	0.724	522.825378417969	1044.621826171875	406.0377197265627	519.5442504882815	1061.343872070313	191.3255310058594	344.9738769531251	1081.854614257813	355.1952514648439	346.5609436035157	1087.0673828125	259.4053344726564	450.5388793945315	1117.837768554688	456.4611816406252	461.9907226562502	1129.701782226563	162.6192169189454	418.9006347656252	551.7186279296877	490.3195495605471	406.0771179199221	521.0339355468752	369.6766967773439	441.5453186035159	806.0442504882817	501.4311218261721	487.6728820800784	713.6308593750002	490.5527954101565	424.4565734863284	628.9173583984377	492.2808532714846	366.5757141113282	96.14861297607428	507.4316101074221	396.2564697265627	105.4896469116212	417.2607421875002	435.276306152344	397.1159362792971	427.4995422363284	443.1103515625002	331.5293884277345	483.413757324219	427.4319458007815	258.4620971679689	442.0659179687502	312.485565185547	44.50844955444337	454.7929382324221	530.9031982421877	47.26894760131837	445.933288574219	519.6821899414065	43.46983718872072	555.002624511719	420.4639282226565	545.8028564453127	109.1111755371094	411.3220825195315	520.0708618164065	231.7966613769532	440.1128234863284	832.1990356445317	102.1089553833008	478.949645996094	740.912048339844	106.5543975830079	414.416931152344	660.1478271484377	110.8316650390626	372.2384643554689	100.0707550048829	88.04226684570315	400.289489746094	102.7750091552735	178.8745727539063	439.9173278808596	395.8672180175784	169.9944000244141	450.7330627441409	324.2659606933595	121.4822616577149	425.0900878906252	258.0918273925782	166.7959289550782	318.0803833007814	44.49570083618165	134.1999816894532	541.7766113281252	43.08422470092775	162.5699157714844	533.1482543945315	41.32690048217775	52.44311141967776	344.8839721679689	1541.075927734376	310.4204711914064	332.104461669922	1268.437377929688	305.0128479003907	492.0014953613284	1513.184326171875	310.1448364257814	567.785339355469	1332.742919921875	313.2415161132814	348.8127746582032	1539.344482421876	484.6015625000002	348.9068603515626	1541.378906250001	137.9832611083985	
183	0.728	522.787048339844	1044.599487304688	406.0401611328127	519.5415039062502	1061.371704101563	191.362777709961	344.9428100585939	1082.209594726563	354.8369445800782	346.5095214843751	1087.053466796875	259.4154357910157	450.5217285156252	1117.8369140625	456.4918212890627	461.8630065917971	1129.632568359375	162.5785369873047	418.9156494140627	551.710388183594	490.2812500000002	406.0791320800784	521.0388183593752	369.691131591797	441.546081542969	806.007934570313	501.4634094238284	487.6813964843752	713.6174926757815	490.5467834472659	424.6315612792971	629.040710449219	492.2165527343752	366.590301513672	96.15515136718756	507.4624938964846	396.2593078613284	105.5393295288087	417.2362365722659	435.2991027832034	397.1306152343752	427.5323486328127	443.110534667969	331.5328063964845	483.394470214844	427.4050292968752	258.455780029297	442.0276489257815	312.4676818847657	44.5203094482422	454.8280029296877	530.858825683594	47.25440597534181	445.9065551757815	519.695983886719	43.48386383056642	554.9822387695315	420.524353027344	545.8200683593752	109.1553115844727	411.2871704101565	520.0635986328127	231.8014373779298	440.1043395996096	832.1792602539067	102.0804138183594	478.927917480469	740.944763183594	106.5258941650391	414.403259277344	660.1699218750002	110.8055496215821	372.1485900878907	100.0855865478516	87.93836975097659	400.2890625000002	102.7728805541993	178.8419189453126	439.9426574707034	395.8332214355471	170.0254211425782	450.7843017578127	324.2919921875001	121.5343627929688	425.0871887207034	258.0771484375001	166.7855682373047	318.0677185058595	44.50550842285158	134.1772766113282	541.8587036132815	43.14925765991212	162.4987945556641	533.114685058594	41.3284034729004	52.39822006225589	344.7785644531251	1541.054321289063	310.4675903320314	332.0584106445314	1268.431884765625	305.017303466797	491.9289245605471	1513.179443359375	310.1817016601564	567.7444458007815	1332.802368164063	313.280731201172	348.6776123046876	1539.293334960938	484.6551818847659	348.8384399414064	1541.383911132813	138.0108947753907	
184	0.732	522.7733154296877	1044.64453125	406.0574645996096	519.492858886719	1061.363647460938	191.3665008544922	345.0485229492189	1081.998168945313	355.1811523437501	346.4785766601564	1087.068481445313	259.4103088378907	450.5843200683596	1117.673828125	456.5500183105471	461.7422180175784	1129.5234375	162.7342681884766	418.919616699219	551.7065429687502	490.2980651855471	406.0788574218752	521.0391235351565	369.7070922851564	441.5486450195315	806.025512695313	501.4742126464846	487.6753845214846	713.6401977539065	490.5304870605471	424.4795837402346	628.8957519531252	492.3057250976565	366.6026000976564	96.13373565673834	507.4490661621096	396.2517395019534	105.5474243164063	417.278259277344	435.2752075195315	397.1182556152346	427.4998474121096	443.1102294921877	331.5114746093751	483.3730163574221	427.4112854003909	258.4578857421876	442.0501098632815	312.5024414062501	44.48929595947267	454.5903015136721	530.9105224609377	47.25125122070314	445.9337463378909	519.6766357421877	43.47220993041994	554.9309692382815	420.5724792480471	545.821716308594	109.1369857788087	411.2489929199221	520.0006103515627	231.8005676269532	440.056335449219	832.2434692382817	102.0605926513672	478.9378967285159	740.9749755859377	106.4944763183594	414.4111633300784	660.2147216796877	110.8090057373047	372.2636108398439	100.0673828125001	88.08050537109378	400.2821044921877	102.7594223022462	178.8583068847657	439.9450988769534	395.8389282226565	170.0324707031251	450.7756958007815	324.2693176269532	121.5191192626954	425.1120910644534	258.088836669922	166.7907867431641	318.0800170898439	44.49853134155275	134.2149047851563	541.8569335937502	43.15902328491212	162.6309051513672	533.155212402344	41.32954406738283	52.44496917724612	344.7172851562501	1541.043090820313	310.4652099609376	331.9925842285157	1268.410888671875	305.0476684570314	491.8753967285159	1513.224609375	310.2361145019532	567.6828613281252	1332.834228515625	313.3059082031251	348.614227294922	1539.448974609376	484.7275695800784	348.7753295898439	1541.397949218751	138.0386657714844	
185	0.736	522.7569580078127	1044.593994140625	406.0637512207034	519.469177246094	1061.39599609375	191.3750152587891	344.9367065429689	1082.160766601563	354.8910217285157	346.4581909179689	1087.056762695313	259.425262451172	450.4280700683596	1117.807983398438	456.484558105469	461.762390136719	1129.622680664063	162.6816406250001	418.9479064941409	551.709167480469	490.2898864746096	406.0706481933596	521.0267333984377	369.7138977050782	441.5950012207034	806.026245117188	501.4666442871096	487.7047424316409	713.661804199219	490.5048828125002	424.6628723144534	629.0362548828127	492.2535705566409	366.5748596191407	96.15545654296881	507.4779052734377	396.2673034667971	105.5372314453126	417.2894592285159	435.2710266113284	397.1241149902346	427.5083007812502	443.1301269531252	331.5131225585939	483.3716125488284	427.3839111328127	258.4277648925782	442.0820007324221	312.5154724121095	44.43214416503908	454.4851989746096	530.8631591796877	47.2578468322754	445.8889160156252	519.6920166015627	43.49976348876955	554.9802246093752	420.5393371582034	545.795349121094	109.1310653686524	411.2417602539065	520.0446777343752	231.8003692626954	440.0257568359377	832.2646484375005	102.0495605468751	478.9249267578127	741.0104980468752	106.4480209350587	414.4106750488284	660.213806152344	110.7940139770508	372.1881713867189	100.1011047363282	87.98191833496097	400.2810668945315	102.7726669311524	178.8476715087891	439.9470520019534	395.8190612792971	170.0398559570313	450.774841308594	324.2718200683595	121.5480728149415	425.1074218750002	258.0668334960939	166.7751464843751	318.0678710937501	44.51589965820314	134.1927490234376	541.9315185546877	43.20642089843751	162.6085357666016	533.1347656250002	41.33652877807619	52.42882919311526	344.6197509765626	1541.039916992188	310.5095825195314	331.9146728515626	1268.404296875	305.0606384277345	491.7533264160159	1513.197143554688	310.2920532226564	567.6343383789065	1332.831909179688	313.2987365722657	348.5222167968751	1539.245117187501	484.7271118164065	348.696502685547	1541.404174804688	138.0698394775391	
